<svg width="26" height="26" viewBox="0 0 26 26" fill="none" xmlns="http://www.w3.org/2000/svg">
<ellipse cx="10.977" cy="24.0084" rx="9.68407" ry="1.99176" fill="#D9D9D9"/>
<path fill-rule="evenodd" clip-rule="evenodd" d="M25.0301 14.8976C25.1593 14.8506 25.2264 14.7082 25.1803 14.5787C25.1341 14.4492 24.9921 14.3812 24.8623 14.4266L23.0013 15.0771L23.154 14.8401L24.0737 14.0587C24.1789 13.9693 24.1918 13.8116 24.1024 13.7063C24.013 13.6011 23.8553 13.5882 23.7501 13.6776L22.8021 14.483C22.7834 14.4989 22.7671 14.5175 22.7538 14.5382L22.2857 15.2647C22.1877 15.2367 22.0642 15.201 21.9271 15.1602C21.5907 15.0601 21.1776 14.931 20.8569 14.8117C20.4716 14.6682 20.0365 14.4404 19.6923 14.2445C19.5214 14.1472 19.3753 14.0591 19.2721 13.9955C19.2205 13.9637 19.1798 13.938 19.152 13.9204L19.1205 13.9003L19.1126 13.8952L19.1108 13.894L19.1104 13.8938L19.1103 13.8937L19.1103 13.8937L18.9741 14.1034L18.8379 14.313L18.838 14.3131L18.8382 14.3132L18.8388 14.3137L18.8412 14.3152L18.8502 14.321L18.8841 14.3426C18.9135 14.3613 18.9561 14.3881 19.0097 14.4211C19.1168 14.4872 19.268 14.5783 19.4449 14.6791C19.7963 14.8791 20.2591 15.1227 20.6825 15.2803C21.0195 15.4057 21.4458 15.5387 21.7845 15.6395C21.9546 15.6901 22.1039 15.733 22.2108 15.7632C22.2357 15.7702 22.2582 15.7766 22.2782 15.7822L23.0724 16.4963C23.0823 16.5052 23.0929 16.5134 23.1041 16.5206L23.9834 17.0872C24.0994 17.162 24.2541 17.1285 24.3289 17.0125C24.4037 16.8964 24.3703 16.7417 24.2542 16.6669L23.3918 16.1111L23.0693 15.8211L23.5331 15.8335L24.1453 16.0458L24.7942 16.2709C24.9246 16.3161 25.067 16.247 25.1123 16.1165C25.1575 15.9861 25.0884 15.8436 24.958 15.7984L24.3092 15.5734L23.7184 15.3685L23.9606 15.2863L23.9606 15.2863L23.9656 15.2845L25.0301 14.8976Z" fill="#B36913"/>
<path d="M3.33591 6.72132L2.63448 7.74851L1.8194 8.40414M1.8194 8.40414L2.16462 6.87639L2.43774 5.77703L1.8194 8.40414ZM1.8194 8.40414L1.66421 7.23261L1.37246 6.61076L1.0807 5.98892M1.8194 8.40414L0.978052 7.64564L0.322446 6.83033" stroke="#B36913" stroke-width="0.5" stroke-linecap="round" stroke-linejoin="round"/>
<path d="M1.8127 8.29937C1.8127 8.29937 1.80462 9.52725 2.58908 9.77835C3.22698 9.98252 4.46872 10.2536 4.46872 10.2536" stroke="#B36913" stroke-width="0.5"/>
<path fill-rule="evenodd" clip-rule="evenodd" d="M9.98271 23.4727C9.87692 23.8327 9.40916 24.1697 8.66989 24.3134C7.75602 24.491 7.11626 24.2394 7.02945 23.7926C6.94265 23.3459 7.49401 23.1426 8.40788 22.965C8.86953 22.8752 9.24787 22.8262 9.52044 22.8573L9.12245 18.3082L9.62055 18.2646L10.0755 23.4646L9.98271 23.4727Z" fill="#B36913"/>
<path fill-rule="evenodd" clip-rule="evenodd" d="M15.5534 22.6153C15.7945 22.6173 16.0889 22.6559 16.4252 22.7152C17.3288 22.8746 17.8969 23.0705 17.8179 23.5187C17.7389 23.9669 17.0905 24.2274 16.1869 24.068C15.2833 23.9087 14.7629 23.4422 14.8419 22.994C14.8659 22.8573 14.9385 22.7633 15.0534 22.7031V18.1699L15.5534 18.1699L15.5534 22.6153Z" fill="#B36913"/>
<mask id="path-7-inside-1_1097_4466" fill="white">
<path fill-rule="evenodd" clip-rule="evenodd" d="M13.8174 0.00489743C12.3117 -0.116771 11.7304 2.0603 12.5808 3C12.5413 1.51286 13.2575 1.46826 13.701 1.52171C14.6631 1.63766 14.8212 0.0860083 13.8174 0.00489743ZM13.8542 1.90168C13.3804 1.47909 12.7727 2.14995 12.7972 2.72837C13.1418 2.22256 13.2125 2.30714 13.3105 2.42433C13.3269 2.44383 13.3439 2.46422 13.3631 2.48296C13.6552 2.76787 14.1701 2.1834 13.8542 1.90168ZM12.1453 2.72601C12.1799 2.1481 11.5842 1.46682 11.103 1.88114C10.7822 2.15735 11.2867 2.75065 11.5837 2.47083C11.6033 2.45244 11.6207 2.43234 11.6373 2.41313C11.7374 2.29765 11.8097 2.21431 12.1453 2.72601Z"/>
</mask>
<path fill-rule="evenodd" clip-rule="evenodd" d="M13.8174 0.00489743C12.3117 -0.116771 11.7304 2.0603 12.5808 3C12.5413 1.51286 13.2575 1.46826 13.701 1.52171C14.6631 1.63766 14.8212 0.0860083 13.8174 0.00489743ZM13.8542 1.90168C13.3804 1.47909 12.7727 2.14995 12.7972 2.72837C13.1418 2.22256 13.2125 2.30714 13.3105 2.42433C13.3269 2.44383 13.3439 2.46422 13.3631 2.48296C13.6552 2.76787 14.1701 2.1834 13.8542 1.90168ZM12.1453 2.72601C12.1799 2.1481 11.5842 1.46682 11.103 1.88114C10.7822 2.15735 11.2867 2.75065 11.5837 2.47083C11.6033 2.45244 11.6207 2.43234 11.6373 2.41313C11.7374 2.29765 11.8097 2.21431 12.1453 2.72601Z" fill="#94CA3D"/>
<path d="M12.5808 3L12.5067 3.0671L12.688 3.26743L12.6808 2.99734L12.5808 3ZM13.8174 0.00489743L13.8094 0.104573L13.8174 0.00489743ZM13.701 1.52171L13.713 1.42243L13.701 1.52171ZM12.7972 2.72837L12.6973 2.73259L12.71 3.03397L12.8798 2.78468L12.7972 2.72837ZM13.8542 1.90168L13.9208 1.82705L13.8542 1.90168ZM13.3105 2.42433L13.3872 2.36017L13.3872 2.36017L13.3105 2.42433ZM13.3631 2.48296L13.433 2.41137H13.433L13.3631 2.48296ZM11.103 1.88114L11.1682 1.95692H11.1682L11.103 1.88114ZM12.1453 2.72601L12.0617 2.78086L12.2271 3.03305L12.2451 2.73199L12.1453 2.72601ZM11.5837 2.47083L11.5152 2.39804H11.5152L11.5837 2.47083ZM11.6373 2.41313L11.7129 2.47862L11.7129 2.47862L11.6373 2.41313ZM12.655 2.9329C12.2617 2.49833 12.1908 1.7612 12.4099 1.1376C12.6279 0.517579 13.117 0.0486274 13.8094 0.104573L13.8255 -0.0947777C13.0121 -0.160501 12.4578 0.398251 12.2212 1.07128C11.986 1.74072 12.0496 2.56198 12.5067 3.0671L12.655 2.9329ZM13.713 1.42243C13.4861 1.39508 13.1592 1.38789 12.896 1.60616C12.6313 1.82561 12.4608 2.24724 12.4809 3.00266L12.6808 2.99734C12.6613 2.26562 12.8292 1.92138 13.0236 1.76011C13.2195 1.59766 13.4725 1.59489 13.6891 1.62099L13.713 1.42243ZM13.8094 0.104573C14.0321 0.122567 14.1832 0.220371 14.2768 0.350736C14.372 0.483474 14.4122 0.656665 14.3968 0.828292C14.3815 1.00001 14.3113 1.162 14.1966 1.27326C14.0842 1.38234 13.9241 1.44786 13.713 1.42243L13.6891 1.62099C13.9591 1.65353 14.1795 1.56858 14.3359 1.4168C14.4901 1.2672 14.5771 1.05795 14.596 0.846111C14.615 0.63418 14.5666 0.411497 14.4392 0.234111C14.3102 0.054352 14.1047 -0.0722168 13.8255 -0.0947777L13.8094 0.104573ZM12.8971 2.72416C12.8862 2.46746 13.0177 2.18312 13.2057 2.01399C13.2987 1.93035 13.3992 1.88052 13.4958 1.87072C13.5893 1.86123 13.6887 1.88806 13.7876 1.97631L13.9208 1.82705C13.7828 1.70401 13.6286 1.65622 13.4756 1.67174C13.3257 1.68695 13.1871 1.76175 13.072 1.8653C12.8438 2.07056 12.6837 2.41086 12.6973 2.73259L12.8971 2.72416ZM13.3872 2.36017C13.3657 2.33446 13.3327 2.29353 13.2913 2.26703C13.2407 2.23466 13.1791 2.2236 13.1111 2.24911C13.0524 2.27117 12.9953 2.31835 12.9355 2.38319C12.8741 2.44974 12.8019 2.54384 12.7145 2.67207L12.8798 2.78468C12.9648 2.66 13.0306 2.57499 13.0825 2.51881C13.1359 2.46091 13.1672 2.44171 13.1815 2.43633C13.1866 2.43442 13.1825 2.43486 13.1835 2.4355C13.1937 2.44202 13.2063 2.4556 13.2338 2.48849L13.3872 2.36017ZM13.433 2.41137C13.418 2.39674 13.404 2.38025 13.3872 2.36017L13.2338 2.48849C13.2497 2.50741 13.2699 2.5317 13.2933 2.55454L13.433 2.41137ZM13.7876 1.97631C13.8405 2.02342 13.858 2.08039 13.8523 2.14211C13.8462 2.20733 13.8132 2.27897 13.761 2.33948C13.7086 2.40016 13.6443 2.44107 13.5854 2.45442C13.5308 2.46679 13.4794 2.45671 13.433 2.41137L13.2933 2.55454C13.3929 2.65167 13.5154 2.67537 13.6296 2.64948C13.7395 2.62457 13.839 2.55517 13.9124 2.47014C13.9859 2.38492 14.0407 2.27544 14.0514 2.16073C14.0624 2.04253 14.0259 1.9208 13.9208 1.82705L13.7876 1.97631ZM11.1682 1.95692C11.2687 1.87039 11.3686 1.84529 11.4619 1.85639C11.5583 1.86786 11.6579 1.91942 11.7494 2.00465C11.9344 2.17701 12.0608 2.46357 12.0455 2.72004L12.2451 2.73199C12.2644 2.41055 12.1102 2.06751 11.8857 1.85832C11.7725 1.75279 11.6351 1.67559 11.4855 1.65779C11.3328 1.63962 11.1778 1.68474 11.0377 1.80536L11.1682 1.95692ZM11.5152 2.39804C11.4679 2.44258 11.4163 2.45177 11.362 2.43845C11.3033 2.42408 11.2398 2.38207 11.1885 2.3205C11.1374 2.2591 11.1056 2.1869 11.1007 2.1216C11.096 2.05979 11.1146 2.00312 11.1682 1.95692L11.0377 1.80536C10.931 1.89726 10.8923 2.01834 10.9013 2.13671C10.91 2.25159 10.9628 2.36201 11.0348 2.44849C11.1067 2.53479 11.205 2.6059 11.3144 2.63271C11.4282 2.66058 11.5511 2.639 11.6523 2.54363L11.5152 2.39804ZM11.5618 2.34763C11.5446 2.36742 11.5304 2.38367 11.5152 2.39804L11.6523 2.54363C11.6761 2.5212 11.6968 2.49726 11.7129 2.47862L11.5618 2.34763ZM12.2289 2.67117C12.1438 2.54145 12.0733 2.44611 12.0131 2.37849C11.9544 2.31263 11.8981 2.26447 11.8398 2.24139C11.7723 2.2147 11.7105 2.2247 11.6593 2.25617C11.6174 2.28195 11.5837 2.3223 11.5618 2.34763L11.7129 2.47862C11.741 2.44621 11.7538 2.43284 11.7641 2.4265C11.7652 2.42587 11.7611 2.42536 11.7662 2.42736C11.7804 2.43298 11.8113 2.45271 11.8637 2.51153C11.9146 2.5686 11.9789 2.65473 12.0617 2.78086L12.2289 2.67117Z" fill="#83B534" mask="url(#path-7-inside-1_1097_4466)"/>
<circle cx="12" cy="11" r="8.25" fill="#FF8A00" stroke="#B36913" stroke-width="0.5"/>
<path fill-rule="evenodd" clip-rule="evenodd" d="M11.6348 18.9846C15.8201 18.7265 19.1348 15.2504 19.1348 11C19.1348 6.74965 15.8201 3.27347 11.6348 3.01537C11.8001 3.00517 11.9668 3 12.1348 3C16.553 3 20.1348 6.58172 20.1348 11C20.1348 15.4183 16.553 19 12.1348 19C11.9668 19 11.8001 18.9948 11.6348 18.9846Z" fill="#FF9736"/>
<path fill-rule="evenodd" clip-rule="evenodd" d="M6.22523 16.5364C5.44636 15.2045 5 13.6544 5 12C5 7.37762 8.48471 3.56912 12.9704 3.05826C12.6523 3.0198 12.3285 3 12 3C7.58172 3 4 6.58172 4 11C4 13.1485 4.84697 15.0992 6.22523 16.5364Z" fill="#FFD584"/>
<path fill-rule="evenodd" clip-rule="evenodd" d="M7.85508 12.3352C8.49992 12.3352 9.02267 11.8124 9.02267 11.1676C9.02267 10.5227 8.49992 10 7.85508 10C7.21024 10 6.6875 10.5227 6.6875 11.1676C6.6875 11.8124 7.21024 12.3352 7.85508 12.3352ZM15.41 12.3352C16.0549 12.3352 16.5776 11.8124 16.5776 11.1676C16.5776 10.5227 16.0549 10 15.41 10C14.7652 10 14.2424 10.5227 14.2424 11.1676C14.2424 11.8124 14.7652 12.3352 15.41 12.3352Z" fill="#000A00"/>
<path fill-rule="evenodd" clip-rule="evenodd" d="M7.37433 11.0993C7.52606 11.0993 7.64906 10.9763 7.64906 10.8245C7.64906 10.6728 7.52606 10.5498 7.37433 10.5498C7.22261 10.5498 7.09961 10.6728 7.09961 10.8245C7.09961 10.9763 7.22261 11.0993 7.37433 11.0993ZM14.9293 11.0993C15.081 11.0993 15.204 10.9763 15.204 10.8245C15.204 10.6728 15.081 10.5498 14.9293 10.5498C14.7776 10.5498 14.6546 10.6728 14.6546 10.8245C14.6546 10.9763 14.7776 11.0993 14.9293 11.0993Z" fill="white"/>
<path d="M10.5332 13.4346C10.5332 13.4346 10.9889 14.1214 11.4947 14.1214C12.0006 14.1214 12.4563 13.4346 12.4563 13.4346" stroke="black" stroke-width="0.3" stroke-linecap="round" stroke-linejoin="round"/>
<path fill-rule="evenodd" clip-rule="evenodd" d="M7.37363 13.7093C8.13226 13.7093 8.74725 13.5555 8.74725 13.3659C8.74725 13.1762 8.13226 13.0225 7.37363 13.0225C6.61499 13.0225 6 13.1762 6 13.3659C6 13.5555 6.61499 13.7093 7.37363 13.7093ZM15.6154 13.7093C16.374 13.7093 16.989 13.5555 16.989 13.3659C16.989 13.1762 16.374 13.0225 15.6154 13.0225C14.8568 13.0225 14.2418 13.1762 14.2418 13.3659C14.2418 13.5555 14.8568 13.7093 15.6154 13.7093Z" fill="#FFAEB0"/>
</svg>
