<svg width="50" height="51" viewBox="0 0 50 51" fill="none" xmlns="http://www.w3.org/2000/svg">
<path d="M35 34.5H13C12.7 34.5 12.4 34.3 12.2 34.1C12 33.9 12 33.5 12.1 33.2L14 28.4L12.1 10.5H6V8.5H13C13.5 8.5 13.9 8.9 14 9.4L16 28.4C16 28.6 16 28.7 15.9 28.9L14.5 32.5H36L35 34.5Z" fill="white"/>
<path d="M15.2 29.5L14.8 27.5L38 22.7V14.5H14V12.5H39C39.6 12.5 40 12.9 40 13.5V23.5C40 24 39.7 24.4 39.2 24.5L15.2 29.5Z" fill="white"/>
<path d="M36 40.5C33.8 40.5 32 38.7 32 36.5C32 34.3 33.8 32.5 36 32.5C38.2 32.5 40 34.3 40 36.5C40 38.7 38.2 40.5 36 40.5ZM36 34.5C34.9 34.5 34 35.4 34 36.5C34 37.6 34.9 38.5 36 38.5C37.1 38.5 38 37.6 38 36.5C38 35.4 37.1 34.5 36 34.5Z" fill="white"/>
<path d="M12 40.5C9.8 40.5 8 38.7 8 36.5C8 34.3 9.8 32.5 12 32.5C14.2 32.5 16 34.3 16 36.5C16 38.7 14.2 40.5 12 40.5ZM12 34.5C10.9 34.5 10 35.4 10 36.5C10 37.6 10.9 38.5 12 38.5C13.1 38.5 14 37.6 14 36.5C14 35.4 13.1 34.5 12 34.5Z" fill="white"/>
</svg>
