<svg width="24" height="25" viewBox="0 0 24 25" fill="none" xmlns="http://www.w3.org/2000/svg">
<path d="M12.061 17.8688C11.9691 17.8827 11.9792 17.9868 11.8742 17.973C11.7824 17.9452 11.7485 17.98 11.6435 17.8688C11.5386 17.7576 11.431 17.5484 11.431 17.2774C11.3916 17.208 11.3785 17.1038 11.3916 16.9648C11.4179 16.8259 11.4638 16.6105 11.5294 16.3187C11.5951 16.0964 11.6738 15.7908 11.7657 15.4017C11.8575 14.9988 11.9017 14.8413 12.0067 14.4522C12.0461 14.2299 12.0949 13.9915 12.1605 13.7553C12.2392 13.5191 12.3759 13.0745 12.4547 12.8799C12.5334 12.6715 12.5925 12.5117 12.6318 12.4006C12.7368 12.0116 12.914 11.569 13.0059 11.2772C13.1109 10.9854 13.1568 10.7541 13.3012 10.379C13.4455 9.98996 13.6227 9.47587 13.8327 8.83674C14.1214 8.00309 14.3379 7.37091 14.4823 6.94019C14.6398 6.49558 14.7513 6.17601 14.817 5.9815C14.8957 5.77308 14.9482 5.6133 14.9745 5.50215C14.9745 5.391 15.7684 3.76158 15.8209 3.706C16.3658 2.56625 16.5239 3.13612 16.6158 3.13612C16.7995 3.13612 16.6931 3.59289 16.7981 3.78741C16.9162 3.96803 16.1499 5.82276 16.0709 6.06691C15.9391 6.47405 15.9259 6.61368 15.8209 6.83599C15.611 7.33617 15.3879 7.93362 15.1516 8.62833C14.9154 9.30914 14.6857 9.98301 14.4626 10.6499C14.2395 11.3029 14.2855 11.1444 14.0886 11.6029C14.0886 11.6584 13.813 12.4701 13.7736 12.609C13.7342 12.7479 13.6883 12.873 13.6358 12.9841C13.5833 13.0953 13.5308 13.1995 13.4783 13.2968C13.439 13.394 13.4193 13.4427 13.4193 13.4427C13.4193 13.4982 13.3996 13.6024 13.3602 13.7553C13.3208 13.9081 13.2684 14.0957 13.2027 14.318C13.1502 14.4847 13.0846 14.7001 13.0059 14.9641C12.9403 15.228 12.8943 15.4504 12.8681 15.631C12.9337 15.5059 12.6976 15.6518 12.9076 15.4017C13.1175 15.1516 13.5899 14.8998 13.7736 14.7192C13.9836 14.5247 14.2198 14.3855 14.4823 14.1493C14.7448 13.9131 15.1558 13.5538 15.3133 13.4427C15.4708 13.3315 15.5666 13.2469 15.6978 13.1497C15.829 13.0524 16.1219 12.8799 16.1219 12.8799C16.3376 12.7642 16.3132 12.7654 16.3526 12.7654C16.3001 12.7654 16.4051 12.7515 16.3526 12.7654C16.4051 12.7654 16.8909 12.4145 16.8909 12.4006C16.904 12.3867 17.3382 12.1102 17.2595 12.1928C17.4902 12.0913 17.5139 12.0886 17.644 12.0886C17.774 12.0886 17.975 12.0126 18.1053 12.0913C18.2357 12.17 18.126 12.0913 18.2354 12.1727C18.3123 12.4006 18.1242 12.1026 18.3892 12.4006C18.4898 12.7653 18.4505 12.6646 18.4898 12.9841C18.4661 13.3125 18.3079 14.1188 18.2029 14.4522C18.2029 14.5634 18.0444 15.1933 18.005 15.4017C17.9788 15.5962 17.9516 15.8782 17.9516 16.1005L18.005 16.5076L18.2354 16.6704C18.3404 16.6704 18.6297 16.5492 18.7974 16.4229C18.9651 16.2967 21.4119 14.3909 21.4119 14.3909C21.4644 14.4464 21.4888 14.318 21.8733 14.0652C22.2578 13.8125 22.4885 13.6582 22.5654 13.821C22.6423 13.9838 22.5654 14.228 22.4116 14.3909C22.2578 14.5537 19.2266 17.1038 19.0691 17.2149C18.7541 17.4372 18.4654 17.5484 18.2029 17.5484C17.9536 17.5484 17.7239 17.4372 17.5139 17.2149C17.3039 16.9787 17.1727 16.7147 17.1202 16.4229C17.0677 16.1312 17.0152 15.9552 17.1202 15.5106C17.1727 14.8992 17.2754 14.7301 17.2754 14.4522C17.2885 14.1605 17.5139 13.7522 17.3958 13.5567C17.2777 13.3612 17.1202 13.4427 16.7744 13.7553C16.4463 13.9359 16.1046 14.2694 15.6978 14.5889C15.291 14.9085 14.876 15.2419 14.4823 15.631C14.0886 16.02 13.3668 16.4438 13.1043 16.8606C12.9468 17.069 12.7959 17.2566 12.6515 17.4233C12.5072 17.5762 12.2053 17.8549 12.061 17.8688Z" fill="white"/>
<path d="M7.15989 23.4075C6.39782 24.3844 5.47505 26.2569 6.39782 20.5581C6.52964 19.744 6.91607 18.0383 6.92919 17.8715C6.94232 17.6492 7.29662 16.3748 7.40161 15.958C7.5066 15.5412 7.62471 15.1174 7.75595 14.6867C7.88719 14.256 8.00531 13.9156 8.1103 13.6655C8.16279 13.4432 8.19708 13.4792 8.23645 13.3125C8.28895 13.1319 8.41215 12.7982 8.42527 12.7426C8.46464 12.6871 8.44496 12.5262 8.5237 12.29C8.61557 12.0538 8.68775 11.8245 8.74024 11.6022C8.76649 11.4911 8.81898 11.2826 8.89773 10.977C8.98959 10.6574 9.09458 10.2892 9.2127 9.87238C9.34394 9.45555 9.46861 9.04567 9.58673 8.64275C9.71797 8.23982 9.82952 7.88551 9.92139 7.57984C10.0133 7.27417 10.0723 7.07271 10.0986 6.97545C10.2035 6.80872 10.2823 6.64894 10.3348 6.4961C10.2757 6.39272 10.4201 6.23906 10.4332 6.18348C10.4332 6.18348 10.5159 5.86553 10.6143 5.63627C10.6274 5.53901 10.3348 6.42657 10.3348 6.37099C10.3348 6.30152 10.6891 5.43372 10.7285 5.39204C10.781 5.35036 11.1116 4.75933 11.1116 4.70376C11.1641 4.66208 10.6237 5.83152 10.9145 5.11972C10.9276 5.02246 11.046 4.77323 11.1116 4.70376L11.9276 4.70376L12.1583 4.76628C12.1058 5.00248 11.6734 5.96806 11.4766 6.37099C11.4109 6.64887 10.7707 8.26503 10.7707 8.26503C10.7707 8.57476 11.0985 7.26685 11.1116 7.33632C10.5091 9.16056 11.0064 7.52647 10.9145 7.77657C10.8358 8.02666 10.5513 9.04354 10.4332 9.40479C10.3282 9.76603 10.3938 9.69483 10.2757 10.0561C10.1707 10.4173 10.0133 10.9909 9.92139 11.2687C9.84264 11.5327 9.71582 11.8471 9.38992 12.7426C9.12327 13.4753 9.7744 11.8915 9.38992 12.7426C9.08233 14.1266 8.91152 14.3442 8.74024 14.8593C8.5237 15.5106 8.68119 15.066 8.5237 15.5106C8.37934 15.9552 8.23645 16.3189 8.23645 16.569C8.09209 17.1108 7.82157 18.4772 7.75595 18.6856C7.70346 18.908 7.75595 18.2786 7.9725 17.6878C7.40161 20.2325 7.40161 23.0004 7.15989 23.4075ZM8.2481 4.99554C7.88063 5.00943 4.98598 5.4332 4.62738 5.74582C3.93372 5.8227 -0.286179 7.77396 0.0153988 6.20433C-0.215192 6.20433 5.32123 4.70376 5.32123 4.70376C2.78362 5.32523 6.70539 4.35731 7.73627 4.24525C8.76714 4.1332 11.0808 3.91179 11.3039 3.87011C11.5402 3.82843 8.96334 4.13555 9.17333 4.09387C10.2735 4.01175 11.3039 3.87011 11.3039 3.87011C11.5992 3.87011 12.4665 1.34529 13.1695 0.693828C13.8726 0.042429 14.6817 1.18203 14.1145 1.91495C13.3455 2.07774 13.0879 2.8105 13.0879 2.8105C13.4004 2.322 12.3065 3.84232 12.5428 3.87011C12.779 3.8979 14.6066 4.016 14.6066 4.016C14.8822 4.05768 15.4105 3.96042 15.5418 4.016C15.8436 4.08547 23.4952 3.88757 23.9236 3.70616C24.3081 3.54333 23.1546 4.76628 22.3857 4.87049C22.0012 4.76628 18.9647 4.95385 18.9253 4.99554C18.8859 5.02332 19.8291 4.95385 18.1563 4.99554C19.3867 5.09974 16.532 4.99554 16.3877 4.99554C17.3104 4.94707 15.4006 4.93996 15.2169 4.87049C15.1512 4.80102 14.6985 4.92606 14.6066 4.87049C14.5279 4.81491 14.3244 4.89828 14.1145 4.87049C13.9176 4.82881 13.6026 4.79407 13.1695 4.76628C12.8021 4.80797 12.8184 4.76628 12.5428 4.76628C12.2672 4.76628 12.1583 4.69681 12.1583 4.76628H10.7285L9.92139 4.76628C9.79015 4.78018 9.82296 4.7385 9.58673 4.76628C9.3505 4.78018 9.58672 4.75732 8.89773 4.87049C8.67462 4.88438 8.2481 4.99554 8.2481 4.99554Z" fill="white"/>
</svg>
