<svg width="29" height="34" viewBox="0 0 29 34" fill="none" xmlns="http://www.w3.org/2000/svg">
<path d="M14.1666 34L4.14932 24.0417C-1.38311 18.5417 -1.38311 9.62476 4.14932 4.1249C9.68174 -1.37497 18.6515 -1.37497 24.184 4.1249C29.7164 9.62476 29.7164 18.5417 24.184 24.0417L14.1666 34ZM21.9578 21.8286C26.2609 17.551 26.2609 10.6155 21.9578 6.33787C17.6549 2.0602 10.6784 2.0602 6.37538 6.33787C2.07239 10.6155 2.07239 17.551 6.37538 21.8286L14.1666 29.5741L21.9578 21.8286ZM14.1666 17.2129C12.4279 17.2129 11.0185 15.8118 11.0185 14.0833C11.0185 12.3548 12.4279 10.9537 14.1666 10.9537C15.9054 10.9537 17.3148 12.3548 17.3148 14.0833C17.3148 15.8118 15.9054 17.2129 14.1666 17.2129Z" fill="#FF8A00"/>
</svg>
