<svg width="50" height="51" viewBox="0 0 50 51" fill="none" xmlns="http://www.w3.org/2000/svg">
<path d="M25.1016 42.5C15.7016 42.5 8.10156 34.9 8.10156 25.5C8.10156 16.1 15.7016 8.5 25.1016 8.5C34.5016 8.5 42.1016 16.1 42.1016 25.5C42.1016 34.9 34.4016 42.5 25.1016 42.5ZM25.1016 10.5C16.8016 10.5 10.1016 17.2 10.1016 25.5C10.1016 33.8 16.8016 40.5 25.1016 40.5C33.4016 40.5 40.1016 33.8 40.1016 25.5C40.1016 17.2 33.3016 10.5 25.1016 10.5Z" fill="white"/>
<path d="M15.3 37.8L13.5 37C14 35.8 15.6 35.1 17.3 34.3C19 33.5 21.1 32.6 21.1 31.5V30C20.5 29.5 19.5 28.4 19.3 26.8C18.8 26.3 18 25.4 18 24.2C18 23.5 18.3 22.9 18.5 22.5C18.3 21.7 18.1 20.2 18.1 19C18.1 15.1 20.8 12.5 25.1 12.5C26.3 12.5 27.8 12.8 28.6 13.7C30.5 14.1 32.1 16.3 32.1 19C32.1 20.7 31.8 22.1 31.6 22.8C31.8 23.1 32 23.6 32 24.2C32 25.5 31.3 26.4 30.7 26.8C30.5 28.4 29.6 29.4 29 29.9V31.5C29 32.4 30.8 33.1 32.4 33.7C34.3 34.4 36.3 35.2 37 36.8L35.1 37.5C34.8 36.7 33.2 36.1 31.7 35.6C29.5 34.8 27 33.9 27 31.6V29L27.5 28.7C27.5 28.7 28.7 27.9 28.7 26.3V25.6L29.3 25.3C29.4 25.3 29.9 25 29.9 24.2C29.9 24 29.7 23.7 29.6 23.6L29.2 23.2L29.4 22.7C29.4 22.7 29.9 21.1 29.9 19.1C29.9 17.2 28.8 15.8 27.9 15.8H27.3L27 15.3C27 14.9 26.3 14.5 25.1 14.5C22 14.5 20.1 16.2 20.1 19C20.1 20.3 20.6 22.5 20.6 22.5L20.7 23L20.3 23.5C20.2 23.5 20 23.8 20 24.2C20 24.7 20.6 25.3 20.9 25.5L21.3 25.8V26.3C21.3 27.8 22.6 28.6 22.6 28.7L23.1 29V31.6C23.1 34 20.5 35.2 18.1 36.2C17 36.6 15.5 37.3 15.3 37.8Z" fill="white"/>
</svg>
