<svg width="24" height="24" viewBox="0 0 24 24" fill="none" xmlns="http://www.w3.org/2000/svg">
<circle cx="12" cy="12" r="12" fill="#FF9E44"/>
<circle cx="11.9998" cy="11.9998" r="11.3143" fill="#FFC553"/>
<path fill-rule="evenodd" clip-rule="evenodd" d="M5.83965 3.71764C7.2912 2.43652 9.57406 1.72205 11.8968 1.71387C12.4736 1.71184 12.8856 2.24189 12.7976 2.81197L11.8087 9.22107C11.6799 10.0561 10.6377 10.3649 10.0748 9.73493L5.81557 4.96907C5.48745 4.60192 5.47047 4.04347 5.83965 3.71764ZM13.7347 2.82562L12.7218 9.12799C12.581 10.0038 13.5657 10.6157 14.2886 10.1016L19.3998 6.46698C19.7835 6.19418 19.9282 5.68777 19.6703 5.29396C18.9198 4.14779 17.347 2.60056 14.8256 2.04072C14.3049 1.92511 13.8193 2.29901 13.7347 2.82562ZM20.1687 7.38614L14.661 10.7845C13.9043 11.2514 14.0876 12.3997 14.9521 12.6078L21.0331 14.0717C21.516 14.188 22.0188 13.9329 22.1338 13.4496C22.671 11.1906 22.0033 8.55107 21.1152 7.46776C20.883 7.18461 20.4803 7.19388 20.1687 7.38614ZM14.7247 13.1745L20.457 15.0132C20.9632 15.1756 21.2438 15.704 21.0107 16.1818C20.4586 17.3135 19.358 18.9545 17.9222 20.159C17.4825 20.5279 16.8347 20.3693 16.55 19.871L13.551 14.6229C13.0984 13.8307 13.8559 12.8959 14.7247 13.1745ZM7.92057 20.2127L10.3021 14.3961C10.6285 13.5987 9.86102 12.7893 9.04741 13.073L3.10784 15.1438C2.58493 15.3261 2.30596 15.9019 2.56168 16.3931C3.41119 18.025 4.90518 19.5124 6.49372 20.6507C6.99531 21.0102 7.68676 20.7838 7.92057 20.2127ZM9.83018 22.2141C12.1679 22.6337 14.2358 22.1953 15.5033 21.7126C16.0112 21.5192 16.1796 20.9223 15.9181 20.4459L12.7507 14.6768C12.3219 13.8958 11.1629 14.0232 10.914 14.8788L9.12784 21.0186C8.97247 21.5527 9.2827 22.1159 9.83018 22.2141ZM5.56317 5.90714L9.66597 10.3719C10.1617 10.9115 9.92811 11.7834 9.22898 12.0027L2.86671 13.9987C2.37038 14.1544 1.84051 13.8987 1.77199 13.383C1.52824 11.5488 2.00593 8.28786 4.20585 5.87197C4.57131 5.47064 5.1959 5.50745 5.56317 5.90714Z" fill="url(#paint0_radial_691_11315)"/>
<defs>
<radialGradient id="paint0_radial_691_11315" cx="0" cy="0" r="1" gradientUnits="userSpaceOnUse" gradientTransform="translate(12.0203 12.0483) rotate(90) scale(10.3344 10.3059)">
<stop stop-color="#FF531D"/>
<stop offset="1" stop-color="#FF8A35"/>
</radialGradient>
</defs>
</svg>
