<svg width="24" height="22" viewBox="0 0 24 22" fill="none" xmlns="http://www.w3.org/2000/svg">
<path fill-rule="evenodd" clip-rule="evenodd" d="M9.93917 10.6463L7.69193 9.89722L7.69192 9.89722L7.69192 9.89721C5.33871 9.11281 4.16211 8.72061 4.16211 7.99985C4.16211 7.27909 5.33872 6.88689 7.69193 6.10249L16.2051 3.26476C17.8609 2.71283 18.6888 2.43687 19.1258 2.87388C19.5628 3.3109 19.2869 4.1388 18.7349 5.79459L15.8972 14.3078L15.8972 14.3078L15.8972 14.3078C15.1128 16.661 14.7206 17.8376 13.9998 17.8376C13.2791 17.8376 12.8869 16.661 12.1025 14.3078L11.3534 12.0605L15.7069 7.70696C16.0975 7.31643 16.0975 6.68327 15.7069 6.29275C15.3164 5.90222 14.6832 5.90222 14.2927 6.29275L9.93917 10.6463Z" fill="#222222"/>
</svg>
