<svg width="125" height="31" viewBox="0 0 125 31" fill="none" xmlns="http://www.w3.org/2000/svg">
<path d="M0.6 11.8C0.6 10.584 0.824 9.29333 1.272 7.928C1.74133 6.56267 2.46667 5.31467 3.448 4.184C4.42933 3.032 5.67733 2.08267 7.192 1.336C8.70667 0.589333 10.52 0.216 12.632 0.216C14.7653 0.216 16.6107 0.599999 18.168 1.368C19.7467 2.11467 21.048 3.064 22.072 4.216C23.096 5.368 23.8533 6.62667 24.344 7.992C24.8347 9.336 25.08 10.6053 25.08 11.8C25.08 12.5893 24.9627 13.4213 24.728 14.296C24.5147 15.1707 24.184 16.0453 23.736 16.92C23.3093 17.7733 22.7547 18.5947 22.072 19.384C21.3893 20.152 20.5787 20.8347 19.64 21.432C18.7227 22.0293 17.6773 22.5093 16.504 22.872C15.352 23.2133 14.0613 23.384 12.632 23.384C10.52 23.384 8.70667 23.0107 7.192 22.264C5.67733 21.496 4.42933 20.536 3.448 19.384C2.46667 18.232 1.74133 16.984 1.272 15.64C0.824 14.2747 0.6 12.9947 0.6 11.8ZM3.736 11.8C3.736 13.2933 3.96 14.6693 4.408 15.928C4.87733 17.1653 5.50667 18.232 6.296 19.128C7.10667 20.024 8.056 20.728 9.144 21.24C10.232 21.7307 11.416 21.976 12.696 21.976C13.9547 21.976 15.1387 21.7307 16.248 21.24C17.3787 20.728 18.36 20.024 19.192 19.128C20.0453 18.232 20.7173 17.1653 21.208 15.928C21.6987 14.6693 21.944 13.2933 21.944 11.8C21.944 10.3067 21.6987 8.94133 21.208 7.704C20.7173 6.44533 20.0453 5.368 19.192 4.472C18.36 3.576 17.3787 2.88266 16.248 2.392C15.1387 1.88 13.9547 1.624 12.696 1.624C11.416 1.624 10.232 1.88 9.144 2.392C8.056 2.88266 7.10667 3.576 6.296 4.472C5.50667 5.368 4.87733 6.44533 4.408 7.704C3.96 8.94133 3.736 10.3067 3.736 11.8ZM29.2475 7H31.9675V9.56H32.1595C32.5435 8.6 33.0342 7.87467 33.6315 7.384C34.2288 6.89333 34.9755 6.648 35.8715 6.648C35.9782 6.648 36.1382 6.66933 36.3515 6.712C36.5862 6.73333 36.8315 6.79733 37.0875 6.904C37.3648 6.98933 37.6315 7.11733 37.8875 7.288C38.1648 7.45867 38.3995 7.672 38.5915 7.928L37.5035 9.912C37.3115 9.63467 37.0022 9.336 36.5755 9.016C36.1702 8.696 35.7222 8.536 35.2315 8.536C34.8688 8.536 34.4955 8.62133 34.1115 8.792C33.7275 8.96267 33.3755 9.24 33.0555 9.624C32.7355 10.008 32.4688 10.5093 32.2555 11.128C32.0635 11.7253 31.9675 12.4613 31.9675 13.336V23H29.2475V7ZM47.3542 6.648C48.9116 6.648 50.1169 6.872 50.9703 7.32C51.8236 7.74667 52.4423 8.312 52.8263 9.016C53.2316 9.72 53.4663 10.5307 53.5303 11.448C53.5943 12.3653 53.6263 13.304 53.6263 14.264V23H51.0343V21.432C50.4156 22.0293 49.6263 22.5093 48.6663 22.872C47.7063 23.2133 46.7463 23.384 45.7863 23.384C44.8689 23.384 44.0583 23.224 43.3543 22.904C42.6503 22.584 42.0636 22.168 41.5943 21.656C41.1249 21.144 40.7729 20.568 40.5383 19.928C40.3036 19.288 40.1863 18.6373 40.1863 17.976C40.1863 17.2933 40.3143 16.6107 40.5703 15.928C40.8263 15.2453 41.2103 14.6373 41.7223 14.104C42.2343 13.5493 42.8636 13.1013 43.6102 12.76C44.3569 12.4187 45.2103 12.248 46.1703 12.248C47.1303 12.248 48.0369 12.44 48.8903 12.824C49.7649 13.1867 50.4796 13.7093 51.0343 14.392V13.016C51.0343 11.2667 50.7676 9.96533 50.2343 9.112C49.7223 8.25867 48.7729 7.832 47.3863 7.832C46.7889 7.832 46.2663 7.90667 45.8183 8.056C45.3703 8.20533 44.9649 8.41867 44.6023 8.696C44.2609 8.952 43.9409 9.28267 43.6423 9.688C43.3436 10.072 43.0449 10.5093 42.7463 11L41.0823 9.336C41.3809 9.016 41.6903 8.696 42.0103 8.376C42.3516 8.056 42.7569 7.768 43.2263 7.512C43.7169 7.256 44.2929 7.05333 44.9543 6.904C45.6156 6.73333 46.4156 6.648 47.3542 6.648ZM51.0343 16.664C50.9276 16.408 50.7676 16.1093 50.5543 15.768C50.3623 15.4267 50.1063 15.096 49.7863 14.776C49.4663 14.456 49.0823 14.1893 48.6343 13.976C48.1863 13.7413 47.6529 13.624 47.0343 13.624C46.4156 13.624 45.8503 13.752 45.3383 14.008C44.8263 14.2427 44.3889 14.5627 44.0263 14.968C43.6849 15.352 43.4183 15.8107 43.2263 16.344C43.0343 16.8773 42.9383 17.432 42.9383 18.008C42.9383 18.6907 43.0556 19.288 43.2903 19.8C43.5463 20.2907 43.8663 20.7173 44.2503 21.08C44.6343 21.4213 45.0609 21.6773 45.5303 21.848C45.9996 22.0187 46.4476 22.104 46.8743 22.104C47.2796 22.104 47.6849 22.0293 48.0903 21.88C48.5169 21.7307 48.9116 21.528 49.2743 21.272C49.6583 20.9947 49.9996 20.6747 50.2983 20.312C50.5969 19.9493 50.8423 19.5547 51.0343 19.128V16.664ZM72.1235 23H69.4035V12.472C69.4035 12.2587 69.3822 11.9173 69.3395 11.448C69.2968 10.9787 69.1582 10.5093 68.9235 10.04C68.7102 9.57067 68.3582 9.16533 67.8675 8.824C67.3768 8.46133 66.6835 8.28 65.7875 8.28C65.2328 8.28 64.6888 8.376 64.1555 8.568C63.6435 8.76 63.1848 9.05867 62.7795 9.464C62.3742 9.86933 62.0542 10.3707 61.8195 10.968C61.5848 11.5653 61.4675 12.28 61.4675 13.112V23H58.7475V7H61.4675V9.048H61.5955L62.1075 8.536C62.8542 7.78933 63.6115 7.288 64.3795 7.032C65.1475 6.75467 65.8408 6.62667 66.4595 6.648C67.8675 6.648 68.9555 6.89333 69.7235 7.384C70.4915 7.85333 71.0462 8.41867 71.3875 9.08C71.7502 9.72 71.9635 10.3813 72.0275 11.064C72.0915 11.7253 72.1235 12.248 72.1235 12.632V23ZM88.7653 24.344V20.44H88.6373C88.2746 21.464 87.6453 22.2107 86.7493 22.68C85.8746 23.1493 84.8399 23.384 83.6453 23.384C82.5573 23.384 81.5653 23.192 80.6693 22.808C79.7946 22.4027 79.0373 21.8373 78.3973 21.112C77.7573 20.3653 77.2559 19.48 76.8932 18.456C76.5519 17.4107 76.3813 16.248 76.3813 14.968C76.3813 13.7093 76.5519 12.568 76.8932 11.544C77.2559 10.52 77.7573 9.64533 78.3973 8.92C79.0373 8.19467 79.8053 7.64 80.7013 7.256C81.5973 6.85067 82.5893 6.648 83.6773 6.648C85.0426 6.648 86.1413 6.904 86.9733 7.416C87.8266 7.90667 88.3813 8.6 88.6373 9.496H88.7653V7H91.4853V22.712C91.4853 23.7787 91.3786 24.8027 91.1653 25.784C90.9733 26.7867 90.5999 27.672 90.0453 28.44C89.4906 29.208 88.7119 29.816 87.7093 30.264C86.7066 30.7333 85.3946 30.968 83.7733 30.968C82.8986 30.968 82.1199 30.8507 81.4373 30.616C80.7546 30.4027 80.1679 30.136 79.6773 29.816C79.1866 29.5173 78.7813 29.208 78.4613 28.888C78.1413 28.5893 77.9066 28.344 77.7573 28.152L79.5173 26.552C80.0933 27.512 80.7226 28.28 81.4053 28.856C82.1093 29.432 83.0266 29.72 84.1573 29.72C84.7973 29.72 85.3946 29.624 85.9493 29.432C86.5253 29.24 87.0159 28.9307 87.4213 28.504C87.8479 28.0773 88.1786 27.5227 88.4133 26.84C88.6479 26.1573 88.7653 25.3253 88.7653 24.344ZM88.7653 16.184V13.816C88.7653 13.0907 88.6693 12.3867 88.4773 11.704C88.2853 11.0213 87.9973 10.424 87.6133 9.912C87.2506 9.37867 86.7919 8.96267 86.2373 8.664C85.6826 8.344 85.0533 8.184 84.3493 8.184C84.0293 8.184 83.5813 8.25867 83.0052 8.408C82.4506 8.536 81.8959 8.83467 81.3413 9.304C80.8079 9.77333 80.3386 10.456 79.9333 11.352C79.5279 12.2267 79.3253 13.4107 79.3253 14.904C79.3253 16.312 79.4853 17.464 79.8053 18.36C80.1466 19.256 80.5626 19.9493 81.0533 20.44C81.5653 20.9307 82.1093 21.272 82.6853 21.464C83.2826 21.6347 83.8373 21.72 84.3493 21.72C84.9253 21.72 85.4799 21.6027 86.0133 21.368C86.5466 21.112 87.0159 20.7493 87.4213 20.28C87.8266 19.8107 88.1466 19.2347 88.3813 18.552C88.6373 17.8693 88.7653 17.08 88.7653 16.184ZM110.799 15.704H98.6393C98.6393 17.0053 98.8313 18.072 99.2153 18.904C99.5993 19.736 100.079 20.3867 100.655 20.856C101.231 21.3253 101.85 21.656 102.511 21.848C103.194 22.0187 103.834 22.104 104.431 22.104C104.965 22.104 105.445 22.0507 105.871 21.944C106.319 21.816 106.746 21.6453 107.151 21.432C107.557 21.2187 107.951 20.952 108.335 20.632C108.741 20.312 109.167 19.96 109.615 19.576L110.639 20.6C109.786 21.496 108.783 22.1893 107.631 22.68C106.479 23.1493 105.221 23.384 103.855 23.384C102.447 23.384 101.221 23.1493 100.175 22.68C99.1513 22.1893 98.2979 21.5493 97.6153 20.76C96.9539 19.9493 96.4526 19.0427 96.1113 18.04C95.7913 17.016 95.6313 15.9707 95.6313 14.904C95.6313 13.624 95.8233 12.4827 96.2073 11.48C96.5913 10.456 97.1246 9.592 97.8073 8.888C98.4899 8.16267 99.2899 7.61867 100.207 7.256C101.125 6.872 102.127 6.68 103.215 6.68C104.239 6.68 105.21 6.85067 106.127 7.192C107.045 7.53333 107.845 8.04533 108.527 8.728C109.231 9.41067 109.786 10.2747 110.191 11.32C110.597 12.3653 110.799 13.6027 110.799 15.032V15.704ZM98.6393 14.424H108.015C108.015 12.3547 107.589 10.7333 106.735 9.56C105.903 8.36533 104.73 7.768 103.215 7.768C102.426 7.768 101.743 7.96 101.167 8.344C100.591 8.70667 100.111 9.19733 99.7273 9.816C99.3646 10.4347 99.0873 11.1493 98.8953 11.96C98.7246 12.7493 98.6393 13.5707 98.6393 14.424ZM114.966 7H117.686V9.56H117.878C118.262 8.6 118.753 7.87467 119.35 7.384C119.948 6.89333 120.694 6.648 121.59 6.648C121.697 6.648 121.857 6.66933 122.07 6.712C122.305 6.73333 122.55 6.79733 122.806 6.904C123.084 6.98933 123.35 7.11733 123.606 7.288C123.884 7.45867 124.118 7.672 124.31 7.928L123.222 9.912C123.03 9.63467 122.721 9.336 122.294 9.016C121.889 8.696 121.441 8.536 120.95 8.536C120.588 8.536 120.214 8.62133 119.83 8.792C119.446 8.96267 119.094 9.24 118.774 9.624C118.454 10.008 118.188 10.5093 117.974 11.128C117.782 11.7253 117.686 12.4613 117.686 13.336V23H114.966V7Z" fill="url(#paint0_linear_729_2670)"/>
<defs>
<linearGradient id="paint0_linear_729_2670" x1="-1" y1="12.5" x2="125" y2="12.5" gradientUnits="userSpaceOnUse">
<stop stop-color="#FF6123"/>
<stop offset="0.482965" stop-color="#FF8131"/>
<stop offset="1" stop-color="#FFC553"/>
</linearGradient>
</defs>
</svg>
